<?xml version="1.0" encoding="UTF-8" standalone="no"?>
<!-- Created with Inkscape (http://www.inkscape.org/) -->

<svg
   xmlns:dc="http://purl.org/dc/elements/1.1/"
   xmlns:cc="http://creativecommons.org/ns#"
   xmlns:rdf="http://www.w3.org/1999/02/22-rdf-syntax-ns#"
   xmlns:svg="http://www.w3.org/2000/svg"
   xmlns="http://www.w3.org/2000/svg"
   xmlns:xlink="http://www.w3.org/1999/xlink"
   xmlns:sodipodi="http://sodipodi.sourceforge.net/DTD/sodipodi-0.dtd"
   xmlns:inkscape="http://www.inkscape.org/namespaces/inkscape"
   width="120"
   height="90"
   viewBox="0 0 31.749963 23.8125"
   version="1.1"
   id="svg5241"
   inkscape:version="0.92.3 (2405546, 2018-03-11)"
   sodipodi:docname="milkshake.svg"
   inkscape:export-filename="D:\M0313\milkshake.png"
   inkscape:export-xdpi="96"
   inkscape:export-ydpi="96">
  <defs
     id="defs5235">
    <pattern
       inkscape:collect="always"
       xlink:href="#Strips1_1"
       id="pattern7275"
       patternTransform="matrix(10,0,0,10,0,5.7e-6)" />
    <pattern
       inkscape:isstock="true"
       inkscape:stockid="Stripes 1:1"
       id="Strips1_1"
       patternTransform="translate(0,0) scale(10,10)"
       height="1"
       width="2"
       patternUnits="userSpaceOnUse"
       inkscape:collect="always">
      <rect
         id="rect6551"
         height="2"
         width="1"
         y="-0.5"
         x="0"
         style="fill:black;stroke:none" />
    </pattern>
  </defs>
  <sodipodi:namedview
     id="base"
     pagecolor="#ffffff"
     bordercolor="#666666"
     borderopacity="1.0"
     inkscape:pageopacity="0.0"
     inkscape:pageshadow="2"
     inkscape:zoom="2.8"
     inkscape:cx="36.49522"
     inkscape:cy="82.426051"
     inkscape:document-units="px"
     inkscape:current-layer="layer1"
     showgrid="false"
     showborder="false"
     units="px"
     inkscape:window-width="1920"
     inkscape:window-height="1017"
     inkscape:window-x="-8"
     inkscape:window-y="-8"
     inkscape:window-maximized="1"
     width="1122.5196px" />
  <metadata
     id="metadata5238">
    <rdf:RDF>
      <cc:Work
         rdf:about="">
        <dc:format>image/svg+xml</dc:format>
        <dc:type
           rdf:resource="http://purl.org/dc/dcmitype/StillImage" />
        <dc:title></dc:title>
      </cc:Work>
    </rdf:RDF>
  </metadata>
  <g
     inkscape:label="Layer 1"
     inkscape:groupmode="layer"
     id="layer1"
     transform="translate(0,-273.18743)">
    <text
       xml:space="preserve"
       style="font-style:normal;font-weight:normal;font-size:10.58333302px;line-height:1.25;font-family:sans-serif;letter-spacing:0px;word-spacing:0px;fill:#000000;fill-opacity:1;stroke:none;stroke-width:0.26458332"
       x="54.428574"
       y="114.81546"
       id="text7303"><tspan
         sodipodi:role="line"
         id="tspan7301"
         x="54.428574"
         y="124.17923"
         style="stroke-width:0.26458332" /></text>
    <g
       id="g853"
       transform="matrix(0.04738152,0,0,0.04738152,19.88472,283.46335)">
      <path
         sodipodi:nodetypes="ccccc"
         inkscape:connector-curvature="0"
         id="rect5793"
         d="m -175.86335,12.625216 c 63.0356,9.567847 126.904909,8.885174 191.36499,0.938887 L -17.105248,205.63164 c -44.901282,11.47404 -77.508165,10.31366 -122.409442,0.53454 z"
         style="fill:#ffd5d5;fill-opacity:1;stroke:#000000;stroke-width:1.32291663;stroke-miterlimit:4;stroke-dasharray:none;stroke-opacity:1" />
      <path
         sodipodi:nodetypes="ccccc"
         inkscape:connector-curvature="0"
         id="rect7287"
         d="M -175.93085,12.557719 H 14.091279 L -10.497518,212.73609 c -49.043927,16.92724 -95.714882,11.87821 -141.913612,-1.06908 z"
         style="opacity:0.98986487;fill:#ffd5d5;fill-opacity:1;stroke:#000000;stroke-width:1.32291663;stroke-miterlimit:4;stroke-dasharray:none;stroke-opacity:1" />
      <path
         sodipodi:nodetypes="cccscscscsssc"
         inkscape:connector-curvature="0"
         id="path5796"
         d="m 19.229334,-18.912589 c 20.257209,-0.194927 28.330001,25.6016425 9.235538,36.372118 -13.428537,7.740434 -30.4389038,-2.050767 -30.4389038,-2.050767 0,0 2.84728308,26.159905 -19.7363262,30.559163 -29.257718,5.699366 -36.287131,-17.855147 -36.287131,-17.855147 0,0 -4.365487,29.39537 -32.995236,28.410728 -24.222665,-0.833072 -31.059365,-26.024293 -31.059365,-26.024293 0,0 -9.41025,19.438369 -28.76553,16.154668 -20.93987,-3.552534 -15.31182,-26.908771 -15.31182,-26.908771 0,0 -24.00857,9.375614 -29.70816,-10.1938581 -4.15906,-14.2800779 16.24655,-24.1875279 16.24655,-24.1875279 -17.05197,-50.749275 43.39035,-96.202964 100.211999,-96.202964 56.821651,0 108.764627,43.46281 98.608385,91.926651 z"
         style="fill:#ffffff;fill-opacity:1;stroke:#000000;stroke-width:1.32291663;stroke-miterlimit:4;stroke-dasharray:none;stroke-opacity:1" />
      <path
         sodipodi:nodetypes="ccccc"
         inkscape:connector-curvature="0"
         id="rect5799"
         d="m -167.31182,-182.55573 c 4.93937,-7.53695 8.01061,-4.62938 10.97976,-3.96909 l 39.98947,110.623431 c -4.0602,0.533972 -7.35151,2.419233 -10.97976,3.969092 z"
         style="fill:#ffffff;fill-opacity:1;stroke:#000000;stroke-width:1.32291663;stroke-miterlimit:4;stroke-dasharray:none;stroke-opacity:1" />
      <path
         sodipodi:nodetypes="cc"
         inkscape:connector-curvature="0"
         id="path5802"
         d="m -137.06074,-64.931936 c 10.86617,-9.382004 21.49082,-12.222677 31.98969,-11.656544"
         style="fill:none;stroke:#000000;stroke-width:1.32291663;stroke-linecap:butt;stroke-linejoin:miter;stroke-miterlimit:4;stroke-dasharray:none;stroke-opacity:1" />
      <path
         sodipodi:nodetypes="ssssss"
         inkscape:connector-curvature="0"
         id="path5804"
         d="m -9.6116648,-93.481137 c -1.7628932,12.325658 -9.9689852,22.544695 -22.2663552,22.544695 -12.297377,0 -22.266369,-10.093604 -22.266369,-22.544695 -1e-6,-12.451103 10.135999,-24.564503 22.266369,-22.544693 4.326596,0.72041 7.168749,4.84131 11.399068,7.34373 5.739191,3.39498 12.1617409,6.15061 10.8672872,15.200963 z"
         style="fill:#f20000;fill-opacity:1;stroke:#000000;stroke-width:0.97415346;stroke-miterlimit:4;stroke-dasharray:none;stroke-opacity:1" />
      <path
         sodipodi:nodetypes="cc"
         inkscape:connector-curvature="0"
         id="path5806"
         d="m -17.115568,-88.86855 c -1.467237,9.135058 -5.141847,10.508528 -11.944599,12.853841"
         style="fill:none;stroke:#000000;stroke-width:0.99679536;stroke-linecap:butt;stroke-linejoin:miter;stroke-miterlimit:4;stroke-dasharray:none;stroke-opacity:1" />
      <path
         sodipodi:nodetypes="cc"
         inkscape:connector-curvature="0"
         id="path5809"
         d="m -60.614586,-76.860283 c 18.684054,1.066943 33.020273,9.273826 35.342497,15.8594"
         style="fill:none;stroke:#000000;stroke-width:1.32291663;stroke-linecap:butt;stroke-linejoin:miter;stroke-miterlimit:4;stroke-dasharray:none;stroke-opacity:1" />
      <path
         sodipodi:nodetypes="cccsc"
         inkscape:connector-curvature="0"
         id="path5811"
         d="m -21.471067,-109.31459 11.5959296,-13.60283 2.1473942,4.03047 c -1.8195578,-1.49025 -6.7907238,5.14698 -12.4843838,9.65376 -0.462637,0.3662 -0.785995,-0.43048 -1.25894,-0.0815 z"
         style="fill:#502d16;fill-opacity:1;stroke:#000000;stroke-width:0.81403208;stroke-linecap:butt;stroke-linejoin:miter;stroke-miterlimit:4;stroke-dasharray:none;stroke-opacity:1" />
      <path
         style="fill:url(#pattern7275);fill-opacity:1;stroke:#000000;stroke-width:1.32291663;stroke-miterlimit:4;stroke-dasharray:none;stroke-opacity:1"
         d="m -167.31182,-182.55573 c 4.93937,-7.53695 8.01061,-4.62938 10.97976,-3.96909 l 39.98947,110.623437 c -4.0602,0.533972 -7.35151,2.419233 -10.97976,3.969092 z"
         id="path7273"
         inkscape:connector-curvature="0"
         sodipodi:nodetypes="ccccc" />
      <path
         sodipodi:nodetypes="sssss"
         inkscape:connector-curvature="0"
         id="path7277"
         d="m -59.854908,137.03014 c -5.671851,40.81323 -7.005952,73.54694 -21.902706,74.09183 -17.55815,0.64225 -20.322806,-33.64458 -24.575396,-74.63672 -4.27632,-41.220731 -11.73806,-74.321238 24.575396,-74.636726 30.765934,-0.267292 27.782635,32.871102 21.902706,75.181616 z"
         style="opacity:0.98986487;fill:#e9afaf;fill-opacity:1;stroke:#000000;stroke-width:1.32291663;stroke-miterlimit:4;stroke-dasharray:none;stroke-opacity:1" />
      <path
         style="opacity:0.98986487;fill:#e9afaf;fill-opacity:1;stroke:#000000;stroke-width:1.32291663;stroke-miterlimit:4;stroke-dasharray:none;stroke-opacity:1"
         d="m -9.783163,134.94064 c -9.181383,39.79944 -13.71797,72.10722 -26.874198,70.85372 -15.506668,-1.47742 -14.414951,-35.81933 -13.942765,-76.99141 0.474808,-41.401648 -2.685998,-75.132504 29.280556,-71.072325 27.0830969,3.439916 21.05461932,35.95049 11.536407,77.210015 z"
         id="path7280"
         inkscape:connector-curvature="0"
         sodipodi:nodetypes="sssss" />
      <path
         sodipodi:nodetypes="sssss"
         inkscape:connector-curvature="0"
         id="path7282"
         d="m -114.97435,127.60241 c 0.56461,41.91847 3.69991,75.01664 -8.65887,77.98271 -14.56674,3.49598 -21.32351,-30.49682 -30.19206,-70.98363 -8.91801,-40.712565 -19.43995,-72.751043 10.81818,-78.964006 25.63566,-5.263822 27.44743,28.508625 28.03275,71.964926 z"
         style="opacity:0.98986487;fill:#e9afaf;fill-opacity:1;stroke:#000000;stroke-width:1.32291663;stroke-miterlimit:4;stroke-dasharray:none;stroke-opacity:1" />
      <path
         sodipodi:nodetypes="ccccc"
         inkscape:connector-curvature="0"
         id="rect7298"
         d="m -146.06989,213.02774 c 42.93201,10.52759 88.056344,13.95978 127.66981,2.26785 l -1.700892,31.85495 c -40.543036,10.93583 -81.119928,8.27136 -123.323088,-3.02381 z"
         style="opacity:0.98986487;fill:#e9afaf;fill-opacity:1;stroke:#000000;stroke-width:1.20211387;stroke-miterlimit:4;stroke-dasharray:none;stroke-opacity:1" />
      <flowRoot
         transform="matrix(0.02961017,-0.26292124,0.26292124,0.02961017,-42.29163,242.18792)"
         style="font-style:normal;font-variant:normal;font-weight:normal;font-stretch:normal;font-size:53.33333206px;line-height:1.25;font-family:'Adobe Arabic';-inkscape-font-specification:'Adobe Arabic, Normal';font-variant-ligatures:normal;font-variant-caps:normal;font-variant-numeric:normal;font-feature-settings:normal;text-align:start;letter-spacing:0px;word-spacing:0px;writing-mode:lr-tb;text-anchor:start;fill:#000000;fill-opacity:1;stroke:none"
         id="flowRoot7305"
         xml:space="preserve"><flowRegion
           style="font-style:normal;font-variant:normal;font-weight:normal;font-stretch:normal;font-size:53.33333206px;font-family:'Adobe Arabic';-inkscape-font-specification:'Adobe Arabic, Normal';font-variant-ligatures:normal;font-variant-caps:normal;font-variant-numeric:normal;font-feature-settings:normal;text-align:start;writing-mode:lr-tb;text-anchor:start"
           id="flowRegion7307"><rect
             style="font-style:normal;font-variant:normal;font-weight:normal;font-stretch:normal;font-size:53.33333206px;font-family:'Adobe Arabic';-inkscape-font-specification:'Adobe Arabic, Normal';font-variant-ligatures:normal;font-variant-caps:normal;font-variant-numeric:normal;font-feature-settings:normal;text-align:start;writing-mode:lr-tb;text-anchor:start"
             y="122.51965"
             x="362.85715"
             height="71.428566"
             width="282.85718"
             id="rect7309" /></flowRegion><flowPara
           id="flowPara7313">@milkshake</flowPara></flowRoot>    </g>
  </g>
</svg>
